<svg width="233" height="30" viewBox="0 0 233 30" fill="none" xmlns="http://www.w3.org/2000/svg">
<path d="M9.8 23.36C8.12 23.36 6.69 23.045 5.51 22.415C4.33 21.775 3.375 20.93 2.645 19.88C1.925 18.82 1.395 17.65 1.055 16.37C0.725 15.09 0.56 13.8 0.56 12.5C0.56 11.2 0.725 9.91 1.055 8.63C1.395 7.35 1.925 6.185 2.645 5.135C3.375 4.075 4.33 3.23 5.51 2.6C6.69 1.96 8.12 1.64 9.8 1.64C11.5 1.64 12.935 1.96 14.105 2.6C15.275 3.23 16.22 4.075 16.94 5.135C17.67 6.185 18.2 7.35 18.53 8.63C18.86 9.91 19.025 11.2 19.025 12.5C19.025 13.8 18.86 15.09 18.53 16.37C18.2 17.65 17.67 18.82 16.94 19.88C16.22 20.93 15.275 21.775 14.105 22.415C12.935 23.045 11.5 23.36 9.8 23.36ZM9.8 19.19C10.68 19.19 11.42 18.985 12.02 18.575C12.63 18.165 13.12 17.625 13.49 16.955C13.86 16.275 14.13 15.545 14.3 14.765C14.47 13.985 14.555 13.23 14.555 12.5C14.555 11.72 14.475 10.935 14.315 10.145C14.155 9.355 13.89 8.63 13.52 7.97C13.16 7.31 12.675 6.78 12.065 6.38C11.455 5.98 10.7 5.78 9.8 5.78C8.9 5.78 8.145 5.99 7.535 6.41C6.925 6.82 6.435 7.36 6.065 8.03C5.695 8.7 5.43 9.43 5.27 10.22C5.11 11.01 5.03 11.77 5.03 12.5C5.03 13.27 5.11 14.05 5.27 14.84C5.44 15.62 5.71 16.34 6.08 17C6.46 17.66 6.955 18.19 7.565 18.59C8.175 18.99 8.92 19.19 9.8 19.19ZM29.1561 23.36C27.7261 23.36 26.4861 23.035 25.4361 22.385C24.3861 21.735 23.5711 20.81 22.9911 19.61C22.4211 18.41 22.1361 16.99 22.1361 15.35V13.52C22.1361 11.42 22.3311 9.625 22.7211 8.135C23.1111 6.635 23.6861 5.405 24.4461 4.445C25.2061 3.485 26.1361 2.75 27.2361 2.24C28.3361 1.73 29.5961 1.415 31.0161 1.295L35.7711 0.875L33.3561 4.88L30.5061 5.135C29.7161 5.205 29.0411 5.365 28.4811 5.615C27.9211 5.865 27.4461 6.26 27.0561 6.8C26.6661 7.33 26.3411 8.06 26.0811 8.99C26.0411 9.15 25.9961 9.305 25.9461 9.455C25.8961 9.605 25.8461 9.775 25.7961 9.965C25.8761 9.815 25.9511 9.675 26.0211 9.545C26.0911 9.405 26.1711 9.26 26.2611 9.11C26.6511 8.5 27.1761 8.05 27.8361 7.76C28.4961 7.46 29.2261 7.31 30.0261 7.31C31.2461 7.31 32.3161 7.635 33.2361 8.285C34.1661 8.925 34.8861 9.845 35.3961 11.045C35.9161 12.245 36.1761 13.67 36.1761 15.32C36.1761 16.96 35.8861 18.385 35.3061 19.595C34.7361 20.795 33.9261 21.725 32.8761 22.385C31.8261 23.035 30.5861 23.36 29.1561 23.36ZM29.1561 19.4C30.0761 19.4 30.7911 19.045 31.3011 18.335C31.8211 17.615 32.0811 16.61 32.0811 15.32C32.0811 14.02 31.8261 13.02 31.3161 12.32C30.8161 11.62 30.0961 11.27 29.1561 11.27C28.2261 11.27 27.5061 11.62 26.9961 12.32C26.4961 13.02 26.2461 14.03 26.2461 15.35C26.2461 16.64 26.4961 17.64 26.9961 18.35C27.5061 19.05 28.2261 19.4 29.1561 19.4ZM39.9669 29.09V7.67H44.0919V8.75C44.8519 7.79 45.9119 7.31 47.2719 7.31C48.5919 7.31 49.7269 7.635 50.6769 8.285C51.6269 8.925 52.3569 9.845 52.8669 11.045C53.3769 12.245 53.6319 13.68 53.6319 15.35C53.6319 16.95 53.3619 18.35 52.8219 19.55C52.2919 20.75 51.5469 21.685 50.5869 22.355C49.6269 23.025 48.5069 23.36 47.2269 23.36C46.5569 23.36 45.9569 23.24 45.4269 23C44.9069 22.76 44.4619 22.41 44.0919 21.95V27.23L39.9669 29.09ZM46.5819 19.4C47.5119 19.4 48.2269 19.045 48.7269 18.335C49.2369 17.625 49.4919 16.63 49.4919 15.35C49.4919 14.04 49.2419 13.035 48.7419 12.335C48.2419 11.625 47.5219 11.27 46.5819 11.27C46.0419 11.27 45.5719 11.36 45.1719 11.54C44.7719 11.71 44.4119 11.98 44.0919 12.35V18.26C44.2719 18.6 44.5919 18.875 45.0519 19.085C45.5119 19.295 46.0219 19.4 46.5819 19.4ZM61.9878 23.36C60.3078 23.36 58.9778 22.91 57.9978 22.01C57.0178 21.11 56.5278 19.895 56.5278 18.365C56.5278 17.365 56.7828 16.49 57.2928 15.74C57.8128 14.99 58.5328 14.41 59.4528 14C60.3728 13.58 61.4428 13.37 62.6628 13.37C63.3128 13.37 63.9428 13.425 64.5528 13.535C65.1728 13.645 65.6978 13.8 66.1278 14V13.085C66.1278 12.325 65.8928 11.75 65.4228 11.36C64.9628 10.96 64.2928 10.76 63.4128 10.76C62.6628 10.76 61.8878 10.895 61.0878 11.165C60.2978 11.435 59.4828 11.845 58.6428 12.395L57.3828 9.2C58.2928 8.59 59.3028 8.125 60.4128 7.805C61.5328 7.475 62.6678 7.31 63.8178 7.31C65.9478 7.31 67.5428 7.805 68.6028 8.795C69.6628 9.785 70.1928 11.265 70.1928 13.235V23H66.1278V21.83C65.6378 22.33 65.0378 22.71 64.3278 22.97C63.6278 23.23 62.8478 23.36 61.9878 23.36ZM63.0078 19.91C63.5978 19.91 64.1578 19.805 64.6878 19.595C65.2278 19.385 65.7078 19.08 66.1278 18.68V17.15C65.7278 16.97 65.2878 16.835 64.8078 16.745C64.3278 16.655 63.8378 16.61 63.3378 16.61C62.4678 16.61 61.7828 16.765 61.2828 17.075C60.7928 17.375 60.5478 17.8 60.5478 18.35C60.5478 18.84 60.7628 19.225 61.1928 19.505C61.6228 19.775 62.2278 19.91 63.0078 19.91ZM77.3715 23V11.3H72.9315V7.67H85.9515V11.3H81.4965V23H77.3715ZM88.922 23V7.67H93.047V13.295H99.827V7.67H103.937V23H99.827V16.925H93.047V23H88.922ZM113.052 23.36C111.372 23.36 110.042 22.91 109.062 22.01C108.082 21.11 107.592 19.895 107.592 18.365C107.592 17.365 107.847 16.49 108.357 15.74C108.877 14.99 109.597 14.41 110.517 14C111.437 13.58 112.507 13.37 113.727 13.37C114.377 13.37 115.007 13.425 115.617 13.535C116.237 13.645 116.762 13.8 117.192 14V13.085C117.192 12.325 116.957 11.75 116.487 11.36C116.027 10.96 115.357 10.76 114.477 10.76C113.727 10.76 112.952 10.895 112.152 11.165C111.362 11.435 110.547 11.845 109.707 12.395L108.447 9.2C109.357 8.59 110.367 8.125 111.477 7.805C112.597 7.475 113.732 7.31 114.882 7.31C117.012 7.31 118.607 7.805 119.667 8.795C120.727 9.785 121.257 11.265 121.257 13.235V23H117.192V21.83C116.702 22.33 116.102 22.71 115.392 22.97C114.692 23.23 113.912 23.36 113.052 23.36ZM114.072 19.91C114.662 19.91 115.222 19.805 115.752 19.595C116.292 19.385 116.772 19.08 117.192 18.68V17.15C116.792 16.97 116.352 16.835 115.872 16.745C115.392 16.655 114.902 16.61 114.402 16.61C113.532 16.61 112.847 16.765 112.347 17.075C111.857 17.375 111.612 17.8 111.612 18.35C111.612 18.84 111.827 19.225 112.257 19.505C112.687 19.775 113.292 19.91 114.072 19.91ZM134.642 23V17.9H130.562C129.492 17.9 128.547 17.685 127.727 17.255C126.917 16.815 126.282 16.215 125.822 15.455C125.372 14.685 125.147 13.79 125.147 12.77C125.147 11.77 125.377 10.89 125.837 10.13C126.297 9.36 126.932 8.76 127.742 8.33C128.562 7.89 129.502 7.67 130.562 7.67H138.767V23H134.642ZM124.052 23L129.212 16.055H134.042L128.792 23H124.052ZM131.102 14.54H134.642V11.03H131.102C130.552 11.03 130.107 11.195 129.767 11.525C129.437 11.845 129.272 12.265 129.272 12.785C129.272 13.305 129.437 13.73 129.767 14.06C130.107 14.38 130.552 14.54 131.102 14.54ZM157.287 23.36C155.837 23.36 154.582 23.035 153.522 22.385C152.472 21.735 151.657 20.81 151.077 19.61C150.507 18.41 150.222 16.99 150.222 15.35C150.222 13.71 150.512 12.29 151.092 11.09C151.672 9.88 152.492 8.95 153.552 8.3C154.612 7.64 155.862 7.31 157.302 7.31C158.972 7.31 160.357 7.7 161.457 8.48C162.557 9.26 163.357 10.41 163.857 11.93L159.927 13.25C159.687 12.61 159.342 12.12 158.892 11.78C158.452 11.43 157.942 11.255 157.362 11.255C156.482 11.255 155.767 11.63 155.217 12.38C154.677 13.13 154.407 14.12 154.407 15.35C154.407 16.57 154.672 17.555 155.202 18.305C155.732 19.045 156.427 19.415 157.287 19.415C157.927 19.415 158.472 19.23 158.922 18.86C159.372 18.48 159.717 17.93 159.957 17.21L163.872 18.35C163.392 20.02 162.597 21.275 161.487 22.115C160.377 22.945 158.977 23.36 157.287 23.36ZM167.525 23V7.67H176.225C177.435 7.67 178.405 7.865 179.135 8.255C179.875 8.645 180.405 9.155 180.725 9.785C181.055 10.415 181.22 11.09 181.22 11.81C181.22 12.58 181.065 13.23 180.755 13.76C180.445 14.28 180.01 14.695 179.45 15.005C180.27 15.295 180.855 15.775 181.205 16.445C181.565 17.105 181.745 17.765 181.745 18.425C181.745 19.195 181.565 19.93 181.205 20.63C180.855 21.33 180.295 21.9 179.525 22.34C178.765 22.78 177.76 23 176.51 23H167.525ZM171.65 19.91H175.64C176.08 19.91 176.44 19.845 176.72 19.715C177 19.575 177.21 19.39 177.35 19.16C177.49 18.92 177.56 18.64 177.56 18.32C177.56 18.02 177.485 17.755 177.335 17.525C177.195 17.285 176.97 17.1 176.66 16.97C176.36 16.84 175.975 16.775 175.505 16.775H171.65V19.91ZM171.65 13.685H175.28C175.85 13.685 176.285 13.555 176.585 13.295C176.895 13.025 177.05 12.675 177.05 12.245C177.05 11.945 176.985 11.685 176.855 11.465C176.725 11.245 176.53 11.075 176.27 10.955C176.02 10.825 175.715 10.76 175.355 10.76H171.65V13.685ZM194.437 23V17.9H190.357C189.287 17.9 188.342 17.685 187.522 17.255C186.712 16.815 186.077 16.215 185.617 15.455C185.167 14.685 184.942 13.79 184.942 12.77C184.942 11.77 185.172 10.89 185.632 10.13C186.092 9.36 186.727 8.76 187.537 8.33C188.357 7.89 189.297 7.67 190.357 7.67H198.562V23H194.437ZM183.847 23L189.007 16.055H193.837L188.587 23H183.847ZM190.897 14.54H194.437V11.03H190.897C190.347 11.03 189.902 11.195 189.562 11.525C189.232 11.845 189.067 12.265 189.067 12.785C189.067 13.305 189.232 13.73 189.562 14.06C189.902 14.38 190.347 14.54 190.897 14.54ZM208.853 23.36C207.233 23.36 205.818 23.015 204.608 22.325C203.398 21.625 202.533 20.66 202.013 19.43L205.493 18.2C205.833 18.76 206.278 19.195 206.828 19.505C207.378 19.805 208.013 19.955 208.733 19.955C209.403 19.955 209.918 19.825 210.278 19.565C210.648 19.295 210.833 18.925 210.833 18.455C210.833 17.995 210.638 17.63 210.248 17.36C209.868 17.09 209.328 16.955 208.628 16.955H205.913V13.595H208.433C208.993 13.595 209.433 13.46 209.753 13.19C210.083 12.91 210.248 12.55 210.248 12.11C210.248 11.67 210.088 11.33 209.768 11.09C209.448 10.84 209.003 10.715 208.433 10.715C207.823 10.715 207.278 10.855 206.798 11.135C206.318 11.405 205.943 11.795 205.673 12.305L202.538 10.955C203.048 9.785 203.843 8.885 204.923 8.255C206.013 7.625 207.288 7.31 208.748 7.31C210.448 7.31 211.808 7.7 212.828 8.48C213.848 9.25 214.358 10.26 214.358 11.51C214.358 12.36 214.108 13.1 213.608 13.73C213.108 14.35 212.398 14.8 211.478 15.08C212.588 15.29 213.438 15.735 214.028 16.415C214.628 17.085 214.928 17.9 214.928 18.86C214.928 20.19 214.378 21.275 213.278 22.115C212.178 22.945 210.703 23.36 208.853 23.36ZM218.883 23V7.67H223.008V12.77H227.298C228.368 12.77 229.308 12.985 230.118 13.415C230.938 13.845 231.573 14.445 232.023 15.215C232.483 15.985 232.713 16.88 232.713 17.9C232.713 18.9 232.483 19.785 232.023 20.555C231.563 21.315 230.923 21.915 230.103 22.355C229.293 22.785 228.358 23 227.298 23H218.883ZM223.008 19.64H226.758C227.318 19.64 227.763 19.475 228.093 19.145C228.423 18.815 228.588 18.395 228.588 17.885C228.588 17.365 228.423 16.945 228.093 16.625C227.763 16.295 227.318 16.13 226.758 16.13H223.008V19.64Z" fill="#111831"/>
</svg>
