<svg width="47" height="48" viewBox="0 0 47 48" fill="none" xmlns="http://www.w3.org/2000/svg">
<path d="M36.7188 19.4248C36.7188 15.919 35.3261 12.5567 32.8471 10.0777C30.3681 7.59874 27.0058 6.20605 23.5 6.20605C19.9942 6.20605 16.6319 7.59874 14.1529 10.0777C11.6739 12.5567 10.2813 15.919 10.2812 19.4248C10.2813 24.8474 14.6199 31.9151 23.5 40.3809C32.3801 31.9151 36.7188 24.8474 36.7188 19.4248ZM23.5 44.3936C12.7282 34.6029 7.34375 26.278 7.34375 19.4248C7.34375 15.1399 9.04592 11.0305 12.0758 8.00061C15.1057 4.97073 19.2151 3.26855 23.5 3.26855C27.7849 3.26855 31.8943 4.97073 34.9242 8.00061C37.9541 11.0305 39.6562 15.1399 39.6562 19.4248C39.6562 26.278 34.2718 34.6029 23.5 44.3936Z" fill="#111831"/>
<path d="M23.5 23.8311C24.6686 23.8311 25.7894 23.3668 26.6157 22.5405C27.442 21.7142 27.9062 20.5934 27.9062 19.4248C27.9062 18.2562 27.442 17.1354 26.6157 16.3091C25.7894 15.4828 24.6686 15.0186 23.5 15.0186C22.3314 15.0186 21.2106 15.4828 20.3843 16.3091C19.558 17.1354 19.0938 18.2562 19.0938 19.4248C19.0938 20.5934 19.558 21.7142 20.3843 22.5405C21.2106 23.3668 22.3314 23.8311 23.5 23.8311V23.8311ZM23.5 26.7686C21.5523 26.7686 19.6844 25.9948 18.3072 24.6176C16.93 23.2404 16.1563 21.3725 16.1562 19.4248C16.1563 17.4771 16.93 15.6092 18.3072 14.232C19.6844 12.8548 21.5523 12.0811 23.5 12.0811C25.4477 12.0811 27.3156 12.8548 28.6928 14.232C30.07 15.6092 30.8438 17.4771 30.8438 19.4248C30.8438 21.3725 30.07 23.2404 28.6928 24.6176C27.3156 25.9948 25.4477 26.7686 23.5 26.7686Z" fill="#111831"/>
</svg>
