<svg width="789" height="101" viewBox="0 0 789 101" fill="none" xmlns="http://www.w3.org/2000/svg">
<path d="M789 1.76514L768.176 31.073H735.606L735.606 100.486H705.117L705.117 31.073H657.115L677.939 1.76514H789Z" fill="#223062"/>
<path d="M616.999 65.0289V100.486H647.859V1.76514H616.999V35.7006H571.504V65.0289H616.999ZM532.169 100.486H563.02V1.76514L532.169 1.76514V100.486Z" fill="#223062"/>
<path d="M119.268 100.487L136.79 75.8062H171.219C171.219 75.8062 176.618 75.8062 178.932 75.8062C177.611 74.0377 176.215 71.4391 174.45 68.6383C172.542 65.984 170.78 63.4763 169.161 61.1183L151.535 35.0184L105.404 100.487H69.4131L132.436 11.2795C134.493 8.47867 137.138 5.82438 140.221 3.61301C143.306 1.40163 147.275 0.222656 152.122 0.222656C156.675 0.222656 160.643 1.25187 163.726 3.31667C166.811 5.52804 169.31 8.18233 171.513 11.2795L232.92 100.487H119.268Z" fill="#223062"/>
<path d="M409.263 100.487L426.785 75.8062H461.214C461.214 75.8062 466.613 75.8062 468.927 75.8062C467.606 74.0377 466.209 71.4391 464.444 68.6383C462.536 65.984 460.774 63.4763 459.155 61.1183L441.53 35.0184L395.399 100.487H359.408L422.431 11.2795C424.488 8.47867 427.133 5.82438 430.215 3.61301C433.301 1.40163 437.269 0.222656 442.117 0.222656C446.669 0.222656 450.638 1.25187 453.72 3.31667C456.806 5.52804 459.304 8.18233 461.508 11.2795L522.915 100.487H409.263Z" fill="#223062"/>
<path d="M0 85.7162V100.486H30.9028V31.1134H69.9406L90.7979 1.76514H0.121074V85.7162H0Z" fill="#223062"/>
<path d="M259.794 1.76514L242.176 26.4455H316.983C317.152 26.4455 317.174 26.4386 317.297 26.436C317.73 26.4266 318.088 26.4455 318.405 26.4455C324.658 26.4455 329.727 31.9251 329.727 38.2161C329.727 44.5071 324.658 49.607 318.405 49.607C318.067 49.607 317.732 49.5921 317.401 49.5628C317.242 49.5919 317.074 49.607 316.896 49.607H242.176L242.176 100.486H275.385V73.4924H322.709C327.265 73.4924 332.006 72.9947 336.931 71.9994C341.857 71.0041 346.352 69.2623 350.415 66.7741C354.602 64.2858 358.05 60.9889 360.759 56.8833C363.468 52.6533 365.577 45.8101 365.577 37.2431C365.577 28.6762 363.406 22.8531 360.574 18.7475C357.865 14.5174 354.356 11.1583 350.046 8.67004C345.859 6.18179 341.303 4.44001 336.377 3.44471C331.452 2.32499 326.896 1.76514 322.709 1.76514H259.794Z" fill="#223062"/>
</svg>
