<svg width="319" height="41" viewBox="0 0 319 41" fill="none" xmlns="http://www.w3.org/2000/svg">
<path d="M318.834 1.05442L310.432 12.8832H297.29L297.29 40.8987H284.988L284.988 12.8832H265.619L274.021 1.05442H318.834Z" fill="#223062"/>
<path d="M249.433 26.5879V40.8987H261.885V1.05442H249.433V14.7509H231.076V26.5879H249.433ZM215.205 40.8987H227.653V1.05442L215.205 1.05442V40.8987Z" fill="#223062"/>
<path d="M48.6007 40.8987L55.6706 30.9376H69.5628C69.5628 30.9376 71.7412 30.9376 72.6748 30.9376C72.1419 30.2238 71.5783 29.175 70.8661 28.0446C70.0962 26.9733 69.3853 25.9612 68.732 25.0095L61.6202 14.4755L43.0066 40.8987H28.4844L53.9139 4.89444C54.744 3.76401 55.811 2.69273 57.0548 1.80021C58.2999 0.907692 59.9011 0.431854 61.8571 0.431854C63.694 0.431854 65.2952 0.847248 66.539 1.68061C67.7841 2.57312 68.7922 3.6444 69.6812 4.89444L94.4588 40.8987H48.6007Z" fill="#223062"/>
<path d="M165.612 40.8987L172.682 30.9376H186.574C186.574 30.9376 188.753 30.9376 189.686 30.9376C189.153 30.2238 188.59 29.175 187.878 28.0446C187.108 26.9733 186.397 25.9612 185.744 25.0095L178.632 14.4755L160.018 40.8987H145.496L170.925 4.89444C171.755 3.76401 172.822 2.69273 174.066 1.80021C175.311 0.907692 176.913 0.431854 178.869 0.431854C180.706 0.431854 182.307 0.847248 183.551 1.68061C184.796 2.57312 185.804 3.6444 186.693 4.89444L211.47 40.8987H165.612Z" fill="#223062"/>
<path d="M0.476562 34.9373V40.8987H12.9457V12.8995H28.6972L37.1131 1.05442H0.525415V34.9373H0.476562Z" fill="#223062"/>
<path d="M105.303 1.05442L98.1934 11.0155H128.378C128.446 11.0155 128.455 11.0127 128.504 11.0116C128.679 11.0078 128.824 11.0155 128.952 11.0155C131.475 11.0155 133.52 13.2271 133.52 15.7661C133.52 18.3052 131.475 20.3635 128.952 20.3635C128.815 20.3635 128.68 20.3575 128.546 20.3457C128.482 20.3575 128.415 20.3635 128.343 20.3635H98.1934L98.1934 40.8987H111.593V30.0037H130.688C132.527 30.0037 134.439 29.8029 136.427 29.4012C138.414 28.9995 140.228 28.2965 141.868 27.2922C143.557 26.288 144.948 24.9573 146.041 23.3003C147.134 21.593 147.985 18.8311 147.985 15.3734C147.985 11.9158 147.109 9.56557 145.967 7.90853C144.874 6.20128 143.458 4.84552 141.718 3.84126C140.029 2.83699 138.191 2.13401 136.203 1.7323C134.216 1.28038 132.377 1.05442 130.688 1.05442H105.303Z" fill="#223062"/>
</svg>
